{
	"asset":{
		"generator":"Khronos glTF Blender I/O v4.0.44",
		"version":"2.0"
	},
	"scene":0,
	"scenes":[
		{
			"name":"Scene",
			"nodes":[
				3,
				8,
				9,
				11,
				13
			]
		}
	],
	"nodes":[
		{
			"mesh":0,
			"name":"base-electric-frame"
		},
		{
			"mesh":1,
			"name":"base-electric-topper"
		},
		{
			"mesh":2,
			"name":"base-regular"
		},
		{
			"children":[
				0,
				1,
				2
			],
			"name":"furniture"
		},
		{
			"mesh":3,
			"name":"mattress-balance",
			"translation":[
				0,
				-0.0013528792187571526,
				0
			]
		},
		{
			"mesh":4,
			"name":"mattress-cover",
			"translation":[
				0,
				-0.0013528792187571526,
				0
			]
		},
		{
			"mesh":5,
			"name":"mattress-firm",
			"translation":[
				0,
				-0.0013528792187571526,
				0
			]
		},
		{
			"mesh":6,
			"name":"mattress-hybrid"
		},
		{
			"children":[
				4,
				5,
				6,
				7
			],
			"name":"mattress"
		},
		{
			"mesh":7,
			"name":"pillow-blend",
			"translation":[
				-0.05204510688781738,
				0.5499886870384216,
				-0.29890719056129456
			]
		},
		{
			"mesh":8,
			"name":"pillow-lavender-cover",
			"translation":[
				0.0007467567920684814,
				-0.00033777952194213867,
				9.399652481079102e-05
			]
		},
		{
			"children":[
				10
			],
			"mesh":9,
			"name":"pillow-lavender",
			"translation":[
				-0.34662872552871704,
				0.602371096611023,
				-0.5037683844566345
			]
		},
		{
			"mesh":10,
			"name":"pillow-gel-cover",
			"translation":[
				0.0007449835538864136,
				-0.0007213354110717773,
				0.00023621320724487305
			]
		},
		{
			"children":[
				12
			],
			"mesh":11,
			"name":"pillow-gel",
			"translation":[
				0.2193991094827652,
				0.59269118309021,
				-0.4910988509654999
			]
		}
	],
	"materials":[
		{
			"doubleSided":true,
			"name":"base-electric",
			"occlusionTexture":{
				"index":0
			},
			"pbrMetallicRoughness":{
				"baseColorTexture":{
					"index":1
				},
				"metallicRoughnessTexture":{
					"index":2
				}
			}
		},
		{
			"doubleSided":true,
			"name":"base-electric-top",
			"normalTexture":{
				"index":3
			},
			"occlusionTexture":{
				"index":4
			},
			"pbrMetallicRoughness":{
				"baseColorTexture":{
					"index":5
				},
				"metallicFactor":0
			}
		},
		{
			"doubleSided":true,
			"name":"base-regular",
			"occlusionTexture":{
				"index":6
			},
			"pbrMetallicRoughness":{
				"baseColorTexture":{
					"index":7
				},
				"metallicFactor":0,
				"metallicRoughnessTexture":{
					"index":8
				}
			}
		},
		{
			"doubleSided":true,
			"name":"mattress-balance",
			"normalTexture":{
				"index":9
			},
			"occlusionTexture":{
				"index":10
			},
			"pbrMetallicRoughness":{
				"baseColorTexture":{
					"index":11
				},
				"metallicFactor":0,
				"metallicRoughnessTexture":{
					"index":12
				}
			}
		},
		{
			"doubleSided":true,
			"name":"mattress-cover",
			"normalTexture":{
				"index":13
			},
			"occlusionTexture":{
				"index":14
			},
			"pbrMetallicRoughness":{
				"baseColorTexture":{
					"index":15
				},
				"metallicFactor":0,
				"metallicRoughnessTexture":{
					"index":16
				}
			}
		},
		{
			"doubleSided":true,
			"name":"mattress-firm",
			"normalTexture":{
				"index":17
			},
			"occlusionTexture":{
				"index":18
			},
			"pbrMetallicRoughness":{
				"baseColorTexture":{
					"index":19
				},
				"metallicFactor":0,
				"metallicRoughnessTexture":{
					"index":20
				}
			}
		},
		{
			"doubleSided":true,
			"name":"mattress-hybrid",
			"normalTexture":{
				"index":21,
				"scale":0.20000000298023224
			},
			"occlusionTexture":{
				"index":22
			},
			"pbrMetallicRoughness":{
				"baseColorTexture":{
					"index":23
				},
				"metallicFactor":0,
				"metallicRoughnessTexture":{
					"index":24
				}
			}
		},
		{
			"doubleSided":true,
			"name":"pillow-blend",
			"occlusionTexture":{
				"index":25
			},
			"pbrMetallicRoughness":{
				"baseColorTexture":{
					"index":26
				},
				"metallicRoughnessTexture":{
					"index":27
				}
			}
		},
		{
			"doubleSided":true,
			"name":"pillow-lavender",
			"occlusionTexture":{
				"index":28
			},
			"pbrMetallicRoughness":{
				"baseColorTexture":{
					"index":29
				},
				"metallicRoughnessTexture":{
					"index":30
				}
			}
		},
		{
			"doubleSided":true,
			"name":"pillow-gel",
			"occlusionTexture":{
				"index":31
			},
			"pbrMetallicRoughness":{
				"baseColorTexture":{
					"index":32
				},
				"metallicRoughnessTexture":{
					"index":33
				}
			}
		}
	],
	"meshes":[
		{
			"name":"base_electric_frame.002",
			"primitives":[
				{
					"attributes":{
						"POSITION":0,
						"NORMAL":1,
						"TEXCOORD_0":2
					},
					"indices":3,
					"material":0
				}
			]
		},
		{
			"name":"base_electric_topper.004",
			"primitives":[
				{
					"attributes":{
						"POSITION":4,
						"NORMAL":5,
						"TEXCOORD_0":6
					},
					"indices":7,
					"material":1
				}
			]
		},
		{
			"name":"base_regular",
			"primitives":[
				{
					"attributes":{
						"POSITION":8,
						"NORMAL":9,
						"TEXCOORD_0":10
					},
					"indices":11,
					"material":2
				}
			]
		},
		{
			"name":"mattress_balance.001",
			"primitives":[
				{
					"attributes":{
						"POSITION":12,
						"NORMAL":13,
						"TEXCOORD_0":14
					},
					"indices":15,
					"material":3
				}
			]
		},
		{
			"name":"mattress_cover.001",
			"primitives":[
				{
					"attributes":{
						"POSITION":16,
						"NORMAL":17,
						"TEXCOORD_0":18
					},
					"indices":19,
					"material":4
				}
			]
		},
		{
			"name":"mattress_balance.002",
			"primitives":[
				{
					"attributes":{
						"POSITION":20,
						"NORMAL":21,
						"TEXCOORD_0":22
					},
					"indices":15,
					"material":5
				}
			]
		},
		{
			"name":"mattress_hybrid.001",
			"primitives":[
				{
					"attributes":{
						"POSITION":23,
						"NORMAL":24,
						"TEXCOORD_0":25
					},
					"indices":26,
					"material":6
				}
			]
		},
		{
			"name":"pillow_blend.001",
			"primitives":[
				{
					"attributes":{
						"POSITION":27,
						"NORMAL":28,
						"TEXCOORD_0":29
					},
					"indices":30,
					"material":7
				}
			]
		},
		{
			"name":"pillow_lavender_cover.002",
			"primitives":[
				{
					"attributes":{
						"POSITION":31,
						"NORMAL":32,
						"TEXCOORD_0":33
					},
					"indices":34,
					"material":8
				}
			]
		},
		{
			"name":"pillow_lavender.002",
			"primitives":[
				{
					"attributes":{
						"POSITION":35,
						"NORMAL":36,
						"TEXCOORD_0":37
					},
					"indices":38,
					"material":8
				}
			]
		},
		{
			"name":"pillow_gel_cover.002",
			"primitives":[
				{
					"attributes":{
						"POSITION":39,
						"NORMAL":40,
						"TEXCOORD_0":41
					},
					"indices":42,
					"material":9
				}
			]
		},
		{
			"name":"pillow_gel",
			"primitives":[
				{
					"attributes":{
						"POSITION":43,
						"NORMAL":44,
						"TEXCOORD_0":45
					},
					"indices":46,
					"material":9
				}
			]
		}
	],
	"textures":[
		{
			"sampler":0,
			"source":0
		},
		{
			"sampler":0,
			"source":1
		},
		{
			"sampler":0,
			"source":2
		},
		{
			"sampler":0,
			"source":3
		},
		{
			"sampler":0,
			"source":4
		},
		{
			"sampler":0,
			"source":5
		},
		{
			"sampler":0,
			"source":6
		},
		{
			"sampler":0,
			"source":7
		},
		{
			"sampler":0,
			"source":8
		},
		{
			"sampler":0,
			"source":9
		},
		{
			"sampler":0,
			"source":10
		},
		{
			"sampler":0,
			"source":11
		},
		{
			"sampler":0,
			"source":12
		},
		{
			"sampler":0,
			"source":13
		},
		{
			"sampler":0,
			"source":14
		},
		{
			"sampler":0,
			"source":15
		},
		{
			"sampler":0,
			"source":16
		},
		{
			"sampler":0,
			"source":17
		},
		{
			"sampler":0,
			"source":18
		},
		{
			"sampler":0,
			"source":19
		},
		{
			"sampler":0,
			"source":20
		},
		{
			"sampler":0,
			"source":21
		},
		{
			"sampler":0,
			"source":22
		},
		{
			"sampler":0,
			"source":23
		},
		{
			"sampler":0,
			"source":24
		},
		{
			"sampler":0,
			"source":25
		},
		{
			"sampler":0,
			"source":26
		},
		{
			"sampler":0,
			"source":27
		},
		{
			"sampler":0,
			"source":28
		},
		{
			"sampler":0,
			"source":29
		},
		{
			"sampler":0,
			"source":30
		},
		{
			"sampler":0,
			"source":31
		},
		{
			"sampler":0,
			"source":32
		},
		{
			"sampler":0,
			"source":33
		}
	],
	"images":[
		{
			"mimeType":"image/png",
			"name":"Base_ElectricFrame_AO",
			"uri":"textures/Base_ElectricFrame_AO.png"
		},
		{
			"mimeType":"image/png",
			"name":"Base_ElectricFrame_Albedo_png",
			"uri":"textures/Base_ElectricFrame_Albedo_png.png"
		},
		{
			"mimeType":"image/png",
			"name":"Base_ElectricFrame_Metalness-Base_ElectricFrame_Roughness",
			"uri":"textures/Base_ElectricFrame_Metalness-Base_ElectricFrame_Roughness.png"
		},
		{
			"mimeType":"image/png",
			"name":"Base_Electric_Top_new_Normal",
			"uri":"textures/Base_Electric_Top_new_Normal.png"
		},
		{
			"mimeType":"image/png",
			"name":"Base_Electric_Top_AO_png",
			"uri":"textures/Base_Electric_Top_AO_png.png"
		},
		{
			"mimeType":"image/png",
			"name":"Base_Electric_Top_new_Albedo",
			"uri":"textures/Base_Electric_Top_new_Albedo.png"
		},
		{
			"mimeType":"image/png",
			"name":"Base_Regular_AO",
			"uri":"textures/Base_Regular_AO.png"
		},
		{
			"mimeType":"image/png",
			"name":"Base_Regular-desaturated_Albedo",
			"uri":"textures/Base_Regular-desaturated_Albedo.png"
		},
		{
			"mimeType":"image/png",
			"name":"Base_Regular_Roughness",
			"uri":"textures/Base_Regular_Roughness.png"
		},
		{
			"mimeType":"image/png",
			"name":"Matress-Balance_Normal_png",
			"uri":"textures/Matress-Balance_Normal_png.png"
		},
		{
			"mimeType":"image/png",
			"name":"Matress-Balance_AO_png",
			"uri":"textures/Matress-Balance_AO_png.png"
		},
		{
			"mimeType":"image/png",
			"name":"Matress-Balance_Albedo_png",
			"uri":"textures/Matress-Balance_Albedo_png.png"
		},
		{
			"mimeType":"image/png",
			"name":"Matress-Balance_Roughness_png",
			"uri":"textures/Matress-Balance_Roughness_png.png"
		},
		{
			"mimeType":"image/png",
			"name":"Mattress_Cover_Normal_png",
			"uri":"textures/Mattress_Cover_Normal_png.png"
		},
		{
			"mimeType":"image/png",
			"name":"Mattress_Cover_AO_png",
			"uri":"textures/Mattress_Cover_AO_png.png"
		},
		{
			"mimeType":"image/png",
			"name":"Mattress_Cover_Albedo_png",
			"uri":"textures/Mattress_Cover_Albedo_png.png"
		},
		{
			"mimeType":"image/png",
			"name":"Mattress_Cover_Roughness_png",
			"uri":"textures/Mattress_Cover_Roughness_png.png"
		},
		{
			"mimeType":"image/png",
			"name":"Matress-Firm_Normal",
			"uri":"textures/Matress-Firm_Normal.png"
		},
		{
			"mimeType":"image/png",
			"name":"Matress-Firm_Albedo_AO_png",
			"uri":"textures/Matress-Firm_Albedo_AO_png.png"
		},
		{
			"mimeType":"image/png",
			"name":"Matress-Firm_Albedo_png",
			"uri":"textures/Matress-Firm_Albedo_png.png"
		},
		{
			"mimeType":"image/png",
			"name":"Matress-Firm_Roughness",
			"uri":"textures/Matress-Firm_Roughness.png"
		},
		{
			"mimeType":"image/png",
			"name":"mattress-hybrid_NORMAL_png",
			"uri":"textures/mattress-hybrid_NORMAL_png.png"
		},
		{
			"mimeType":"image/png",
			"name":"mattress-hybrid_AO",
			"uri":"textures/mattress-hybrid_AO.png"
		},
		{
			"mimeType":"image/png",
			"name":"mattress-hybrid_ALBEDO_png",
			"uri":"textures/mattress-hybrid_ALBEDO_png.png"
		},
		{
			"mimeType":"image/png",
			"name":"mattress-hybrid_ROUGHNESS_png",
			"uri":"textures/mattress-hybrid_ROUGHNESS_png.png"
		},
		{
			"mimeType":"image/png",
			"name":"pillow_blend_AO_png",
			"uri":"textures/pillow_blend_AO_png.png"
		},
		{
			"mimeType":"image/png",
			"name":"pillow_blend_Albedo",
			"uri":"textures/pillow_blend_Albedo.png"
		},
		{
			"mimeType":"image/png",
			"name":"pillow-blend_Metallic-pillow-blend_Roughness",
			"uri":"textures/pillow-blend_Metallic-pillow-blend_Roughness.png"
		},
		{
			"mimeType":"image/png",
			"name":"pillow_lavender_AO",
			"uri":"textures/pillow_lavender_AO.png"
		},
		{
			"mimeType":"image/png",
			"name":"pillow-lavender_Albedo",
			"uri":"textures/pillow-lavender_Albedo.png"
		},
		{
			"mimeType":"image/png",
			"name":"pillow-lavender_Metallic-pillow-lavender_Roughness",
			"uri":"textures/pillow-lavender_Metallic-pillow-lavender_Roughness.png"
		},
		{
			"mimeType":"image/png",
			"name":"pillow_gel_AO",
			"uri":"textures/pillow_gel_AO.png"
		},
		{
			"mimeType":"image/png",
			"name":"pillow-gel_Albedo",
			"uri":"textures/pillow-gel_Albedo.png"
		},
		{
			"mimeType":"image/png",
			"name":"pillow-gel_Metallic-pillow-gel_Roughness",
			"uri":"textures/pillow-gel_Metallic-pillow-gel_Roughness.png"
		}
	],
	"accessors":[
		{
			"bufferView":0,
			"componentType":5126,
			"count":10081,
			"max":[
				0.4030700922012329,
				0.35161539912223816,
				0.6378575563430786
			],
			"min":[
				-0.5312873721122742,
				-0.01488928496837616,
				-0.7246477603912354
			],
			"type":"VEC3"
		},
		{
			"bufferView":1,
			"componentType":5126,
			"count":10081,
			"type":"VEC3"
		},
		{
			"bufferView":2,
			"componentType":5126,
			"count":10081,
			"type":"VEC2"
		},
		{
			"bufferView":3,
			"componentType":5123,
			"count":37725,
			"type":"SCALAR"
		},
		{
			"bufferView":4,
			"componentType":5126,
			"count":992,
			"max":[
				0.5021927356719971,
				0.21081572771072388,
				0.6095173954963684
			],
			"min":[
				-0.6270530819892883,
				0.1345183253288269,
				-0.9171493053436279
			],
			"type":"VEC3"
		},
		{
			"bufferView":5,
			"componentType":5126,
			"count":992,
			"type":"VEC3"
		},
		{
			"bufferView":6,
			"componentType":5126,
			"count":992,
			"type":"VEC2"
		},
		{
			"bufferView":7,
			"componentType":5123,
			"count":4944,
			"type":"SCALAR"
		},
		{
			"bufferView":8,
			"componentType":5126,
			"count":705,
			"max":[
				0.49770209193229675,
				0.21609632670879364,
				0.6045668721199036
			],
			"min":[
				-0.632803201675415,
				-0.014876171946525574,
				-0.9233928322792053
			],
			"type":"VEC3"
		},
		{
			"bufferView":9,
			"componentType":5126,
			"count":705,
			"type":"VEC3"
		},
		{
			"bufferView":10,
			"componentType":5126,
			"count":705,
			"type":"VEC2"
		},
		{
			"bufferView":11,
			"componentType":5123,
			"count":2796,
			"type":"SCALAR"
		},
		{
			"bufferView":12,
			"componentType":5126,
			"count":1972,
			"max":[
				0.510179877281189,
				0.4319226145744324,
				0.6176391839981079
			],
			"min":[
				-0.6460869312286377,
				0.21600490808486938,
				-0.929437518119812
			],
			"type":"VEC3"
		},
		{
			"bufferView":13,
			"componentType":5126,
			"count":1972,
			"type":"VEC3"
		},
		{
			"bufferView":14,
			"componentType":5126,
			"count":1972,
			"type":"VEC2"
		},
		{
			"bufferView":15,
			"componentType":5123,
			"count":9606,
			"type":"SCALAR"
		},
		{
			"bufferView":16,
			"componentType":5126,
			"count":1001,
			"max":[
				0.5137818455696106,
				0.43871405720710754,
				0.6199625730514526
			],
			"min":[
				-0.6481584906578064,
				0.21626366674900055,
				-0.9347584843635559
			],
			"type":"VEC3"
		},
		{
			"bufferView":17,
			"componentType":5126,
			"count":1001,
			"type":"VEC3"
		},
		{
			"bufferView":18,
			"componentType":5126,
			"count":1001,
			"type":"VEC2"
		},
		{
			"bufferView":19,
			"componentType":5123,
			"count":5184,
			"type":"SCALAR"
		},
		{
			"bufferView":20,
			"componentType":5126,
			"count":1972,
			"max":[
				0.510179877281189,
				0.4319226145744324,
				0.6176391839981079
			],
			"min":[
				-0.6460869312286377,
				0.21600490808486938,
				-0.929437518119812
			],
			"type":"VEC3"
		},
		{
			"bufferView":21,
			"componentType":5126,
			"count":1972,
			"type":"VEC3"
		},
		{
			"bufferView":22,
			"componentType":5126,
			"count":1972,
			"type":"VEC2"
		},
		{
			"bufferView":23,
			"componentType":5126,
			"count":2627,
			"max":[
				0.506389319896698,
				0.4320419728755951,
				0.6103670001029968
			],
			"min":[
				-0.640505850315094,
				0.21921272575855255,
				-0.9256717562675476
			],
			"type":"VEC3"
		},
		{
			"bufferView":24,
			"componentType":5126,
			"count":2627,
			"type":"VEC3"
		},
		{
			"bufferView":25,
			"componentType":5126,
			"count":2627,
			"type":"VEC2"
		},
		{
			"bufferView":26,
			"componentType":5123,
			"count":13470,
			"type":"SCALAR"
		},
		{
			"bufferView":27,
			"componentType":5126,
			"count":2584,
			"max":[
				0.2597423791885376,
				0.0909029096364975,
				0.14507727324962616
			],
			"min":[
				-0.25712496042251587,
				-0.10209275782108307,
				-0.1537560075521469
			],
			"type":"VEC3"
		},
		{
			"bufferView":28,
			"componentType":5126,
			"count":2584,
			"type":"VEC3"
		},
		{
			"bufferView":29,
			"componentType":5126,
			"count":2584,
			"type":"VEC2"
		},
		{
			"bufferView":30,
			"componentType":5123,
			"count":12765,
			"type":"SCALAR"
		},
		{
			"bufferView":31,
			"componentType":5126,
			"count":1286,
			"max":[
				-0.004057733807712793,
				0.11782952398061752,
				0.07380783557891846
			],
			"min":[
				-0.26735514402389526,
				-0.165352001786232,
				-0.0595213919878006
			],
			"type":"VEC3"
		},
		{
			"bufferView":32,
			"componentType":5126,
			"count":1286,
			"type":"VEC3"
		},
		{
			"bufferView":33,
			"componentType":5126,
			"count":1286,
			"type":"VEC2"
		},
		{
			"bufferView":34,
			"componentType":5123,
			"count":5724,
			"type":"SCALAR"
		},
		{
			"bufferView":35,
			"componentType":5126,
			"count":1024,
			"max":[
				0.26211288571357727,
				0.11336448043584824,
				0.0723605751991272
			],
			"min":[
				-0.03214196860790253,
				-0.16210982203483582,
				-0.05720097944140434
			],
			"type":"VEC3"
		},
		{
			"bufferView":36,
			"componentType":5126,
			"count":1024,
			"type":"VEC3"
		},
		{
			"bufferView":37,
			"componentType":5126,
			"count":1024,
			"type":"VEC2"
		},
		{
			"bufferView":38,
			"componentType":5123,
			"count":5550,
			"type":"SCALAR"
		},
		{
			"bufferView":39,
			"componentType":5126,
			"count":1281,
			"max":[
				-0.004057733807712793,
				0.11557637155056,
				0.0784054771065712
			],
			"min":[
				-0.26735514402389526,
				-0.1630616933107376,
				-0.062307849526405334
			],
			"type":"VEC3"
		},
		{
			"bufferView":40,
			"componentType":5126,
			"count":1281,
			"type":"VEC3"
		},
		{
			"bufferView":41,
			"componentType":5126,
			"count":1281,
			"type":"VEC2"
		},
		{
			"bufferView":42,
			"componentType":5123,
			"count":5724,
			"type":"SCALAR"
		},
		{
			"bufferView":43,
			"componentType":5126,
			"count":1048,
			"max":[
				0.26211288571357727,
				0.11227621138095856,
				0.0768604576587677
			],
			"min":[
				-0.032152384519577026,
				-0.15986691415309906,
				-0.059895653277635574
			],
			"type":"VEC3"
		},
		{
			"bufferView":44,
			"componentType":5126,
			"count":1048,
			"type":"VEC3"
		},
		{
			"bufferView":45,
			"componentType":5126,
			"count":1048,
			"type":"VEC2"
		},
		{
			"bufferView":46,
			"componentType":5123,
			"count":5688,
			"type":"SCALAR"
		}
	],
	"bufferViews":[
		{
			"buffer":0,
			"byteLength":120972,
			"byteOffset":0,
			"target":34962
		},
		{
			"buffer":0,
			"byteLength":120972,
			"byteOffset":120972,
			"target":34962
		},
		{
			"buffer":0,
			"byteLength":80648,
			"byteOffset":241944,
			"target":34962
		},
		{
			"buffer":0,
			"byteLength":75450,
			"byteOffset":322592,
			"target":34963
		},
		{
			"buffer":0,
			"byteLength":11904,
			"byteOffset":398044,
			"target":34962
		},
		{
			"buffer":0,
			"byteLength":11904,
			"byteOffset":409948,
			"target":34962
		},
		{
			"buffer":0,
			"byteLength":7936,
			"byteOffset":421852,
			"target":34962
		},
		{
			"buffer":0,
			"byteLength":9888,
			"byteOffset":429788,
			"target":34963
		},
		{
			"buffer":0,
			"byteLength":8460,
			"byteOffset":439676,
			"target":34962
		},
		{
			"buffer":0,
			"byteLength":8460,
			"byteOffset":448136,
			"target":34962
		},
		{
			"buffer":0,
			"byteLength":5640,
			"byteOffset":456596,
			"target":34962
		},
		{
			"buffer":0,
			"byteLength":5592,
			"byteOffset":462236,
			"target":34963
		},
		{
			"buffer":0,
			"byteLength":23664,
			"byteOffset":467828,
			"target":34962
		},
		{
			"buffer":0,
			"byteLength":23664,
			"byteOffset":491492,
			"target":34962
		},
		{
			"buffer":0,
			"byteLength":15776,
			"byteOffset":515156,
			"target":34962
		},
		{
			"buffer":0,
			"byteLength":19212,
			"byteOffset":530932,
			"target":34963
		},
		{
			"buffer":0,
			"byteLength":12012,
			"byteOffset":550144,
			"target":34962
		},
		{
			"buffer":0,
			"byteLength":12012,
			"byteOffset":562156,
			"target":34962
		},
		{
			"buffer":0,
			"byteLength":8008,
			"byteOffset":574168,
			"target":34962
		},
		{
			"buffer":0,
			"byteLength":10368,
			"byteOffset":582176,
			"target":34963
		},
		{
			"buffer":0,
			"byteLength":23664,
			"byteOffset":592544,
			"target":34962
		},
		{
			"buffer":0,
			"byteLength":23664,
			"byteOffset":616208,
			"target":34962
		},
		{
			"buffer":0,
			"byteLength":15776,
			"byteOffset":639872,
			"target":34962
		},
		{
			"buffer":0,
			"byteLength":31524,
			"byteOffset":655648,
			"target":34962
		},
		{
			"buffer":0,
			"byteLength":31524,
			"byteOffset":687172,
			"target":34962
		},
		{
			"buffer":0,
			"byteLength":21016,
			"byteOffset":718696,
			"target":34962
		},
		{
			"buffer":0,
			"byteLength":26940,
			"byteOffset":739712,
			"target":34963
		},
		{
			"buffer":0,
			"byteLength":31008,
			"byteOffset":766652,
			"target":34962
		},
		{
			"buffer":0,
			"byteLength":31008,
			"byteOffset":797660,
			"target":34962
		},
		{
			"buffer":0,
			"byteLength":20672,
			"byteOffset":828668,
			"target":34962
		},
		{
			"buffer":0,
			"byteLength":25530,
			"byteOffset":849340,
			"target":34963
		},
		{
			"buffer":0,
			"byteLength":15432,
			"byteOffset":874872,
			"target":34962
		},
		{
			"buffer":0,
			"byteLength":15432,
			"byteOffset":890304,
			"target":34962
		},
		{
			"buffer":0,
			"byteLength":10288,
			"byteOffset":905736,
			"target":34962
		},
		{
			"buffer":0,
			"byteLength":11448,
			"byteOffset":916024,
			"target":34963
		},
		{
			"buffer":0,
			"byteLength":12288,
			"byteOffset":927472,
			"target":34962
		},
		{
			"buffer":0,
			"byteLength":12288,
			"byteOffset":939760,
			"target":34962
		},
		{
			"buffer":0,
			"byteLength":8192,
			"byteOffset":952048,
			"target":34962
		},
		{
			"buffer":0,
			"byteLength":11100,
			"byteOffset":960240,
			"target":34963
		},
		{
			"buffer":0,
			"byteLength":15372,
			"byteOffset":971340,
			"target":34962
		},
		{
			"buffer":0,
			"byteLength":15372,
			"byteOffset":986712,
			"target":34962
		},
		{
			"buffer":0,
			"byteLength":10248,
			"byteOffset":1002084,
			"target":34962
		},
		{
			"buffer":0,
			"byteLength":11448,
			"byteOffset":1012332,
			"target":34963
		},
		{
			"buffer":0,
			"byteLength":12576,
			"byteOffset":1023780,
			"target":34962
		},
		{
			"buffer":0,
			"byteLength":12576,
			"byteOffset":1036356,
			"target":34962
		},
		{
			"buffer":0,
			"byteLength":8384,
			"byteOffset":1048932,
			"target":34962
		},
		{
			"buffer":0,
			"byteLength":11376,
			"byteOffset":1057316,
			"target":34963
		}
	],
	"samplers":[
		{
			"magFilter":9729,
			"minFilter":9987
		}
	],
	"buffers":[
		{
			"byteLength":1068692,
			"uri":"base.bin"
		}
	]
}
